<svg width="406" height="485" viewBox="0 0 406 485" fill="none" xmlns="http://www.w3.org/2000/svg">
<g filter="url(#filter0_f_31_44)">
<path d="M204 445C156.75 433.187 117.938 405.766 87.5625 362.734C57.1875 319.703 42 272.537 42 221.237V100.75L204 40L366 100.75V221.237C366 272.537 350.813 319.703 320.438 362.734C290.063 405.766 251.25 433.187 204 445Z" fill="url(#paint0_linear_31_44)" fill-opacity="0.75"/>
</g>
<path d="M193 428.994C145.75 417.181 106.938 389.759 76.5625 346.728C46.1875 303.697 31 256.531 31 205.231V84.7438L193 23.9938L355 84.7438V205.231C355 256.531 339.813 303.697 309.438 346.728C279.063 389.759 240.25 417.181 193 428.994Z" fill="url(#paint1_linear_31_44)"/>
<g filter="url(#filter1_d_31_44)">
<path d="M193 429C145.75 417.188 106.938 389.766 76.5625 346.734C46.1875 303.703 31 256.538 31 205.238V84.75L193 24L355 84.75V205.238C355 256.538 339.813 303.703 309.438 346.734C279.063 389.766 240.25 417.188 193 429ZM193 397.613C228.775 385.8 258.391 364.116 281.847 332.559C305.303 301.003 319.056 265.65 323.106 226.5H193V56.9063L61.375 106.013V205.238C61.375 209.288 61.4594 212.747 61.6281 215.616C61.7969 218.484 62.2188 222.113 62.8938 226.5H193V397.613Z" fill="url(#paint2_linear_31_44)" fill-opacity="0.5" shape-rendering="crispEdges"/>
</g>
<g filter="url(#filter2_f_31_44)">
<path d="M35.3438 433C31.3992 433 28.0229 431.594 25.2147 428.781C22.4049 425.971 21 422.591 21 418.643V314.793C21 310.845 22.4049 307.464 25.2147 304.652C28.0229 301.841 31.3992 300.436 35.3438 300.436H52.0781V277.464C52.0781 264.886 56.5095 254.164 65.3724 245.3C74.2336 236.433 84.9516 232 97.5263 232C110.099 232 120.809 236.433 129.654 245.3C138.499 254.164 142.922 264.886 142.922 277.464V300.436H159.656C163.601 300.436 166.978 301.841 169.788 304.652C172.596 307.464 174 310.845 174 314.793V418.643C174 422.591 172.596 425.971 169.788 428.781C166.978 431.594 163.601 433 159.656 433H35.3438ZM97.5406 385.143C102.614 385.143 106.943 383.386 110.529 379.871C114.115 376.357 115.908 372.132 115.908 367.196C115.908 362.411 114.101 358.064 110.488 354.155C106.875 350.247 102.532 348.293 97.4594 348.293C92.3865 348.293 88.057 350.247 84.4711 354.155C80.8852 358.064 79.0922 362.451 79.0922 367.316C79.0922 372.182 80.8987 376.369 84.5117 379.879C88.1248 383.388 92.4677 385.143 97.5406 385.143ZM66.4219 300.436H128.578V277.464C128.578 268.823 125.56 261.478 119.522 255.431C113.485 249.382 106.154 246.357 97.5287 246.357C88.9033 246.357 81.5625 249.382 75.5063 255.431C69.45 261.478 66.4219 268.823 66.4219 277.464V300.436Z" fill="#8D2700" fill-opacity="0.5"/>
</g>
<foreignObject x="0.8" y="224.1" width="179.1" height="227.1"><div xmlns="http://www.w3.org/1999/xhtml" style="backdrop-filter:blur(6.45px);clip-path:url(#bgblur_0_31_44_clip_path);height:100%;width:100%"></div></foreignObject><g filter="url(#filter3_di_31_44)" data-figma-bg-blur-radius="12.9">
<path d="M28.3438 438C24.3992 438 21.0229 436.594 18.2147 433.781C15.4049 430.971 14 427.591 14 423.643V319.793C14 315.845 15.4049 312.464 18.2147 309.652C21.0229 306.841 24.3992 305.436 28.3438 305.436H45.0781V282.464C45.0781 269.886 49.5095 259.164 58.3724 250.3C67.2336 241.433 77.9516 237 90.5263 237C103.099 237 113.809 241.433 122.654 250.3C131.499 259.164 135.922 269.886 135.922 282.464V305.436H152.656C156.601 305.436 159.978 306.841 162.788 309.652C165.596 312.464 167 315.845 167 319.793V423.643C167 427.591 165.596 430.971 162.788 433.781C159.978 436.594 156.601 438 152.656 438H28.3438ZM90.5406 390.143C95.6135 390.143 99.943 388.386 103.529 384.871C107.115 381.357 108.908 377.132 108.908 372.196C108.908 367.411 107.101 363.064 103.488 359.155C99.8752 355.247 95.5323 353.293 90.4594 353.293C85.3865 353.293 81.057 355.247 77.4711 359.155C73.8852 363.064 72.0922 367.451 72.0922 372.316C72.0922 377.182 73.8987 381.369 77.5117 384.879C81.1248 388.388 85.4677 390.143 90.5406 390.143ZM59.4219 305.436H121.578V282.464C121.578 273.823 118.56 266.478 112.522 260.431C106.485 254.382 99.1541 251.357 90.5287 251.357C81.9033 251.357 74.5625 254.382 68.5063 260.431C62.45 266.478 59.4219 273.823 59.4219 282.464V305.436Z" fill="url(#paint3_linear_31_44)" fill-opacity="0.66" shape-rendering="crispEdges"/>
<path d="M90.5264 238C102.45 238 112.634 242.062 121.129 250.205L121.946 251.006C130.603 259.682 134.922 270.149 134.922 282.464V305.436C134.922 305.988 135.37 306.436 135.922 306.436H152.656C156.333 306.436 159.456 307.735 162.08 310.359V310.358C164.702 312.985 166 316.112 166 319.793V423.643C166 427.209 164.782 430.254 162.322 432.827L162.08 433.074C159.456 435.701 156.333 437 152.656 437H28.3438C24.782 437 21.7405 435.781 19.1699 433.317L18.9219 433.075V433.074L18.6797 432.827C16.2181 430.254 15 427.209 15 423.643V319.793C15 316.227 16.2181 313.181 18.6797 310.606L18.9219 310.358C21.544 307.734 24.6668 306.436 28.3438 306.436H45.0781C45.6304 306.436 46.0781 305.988 46.0781 305.436V282.464C46.0782 270.535 50.139 260.339 58.2793 251.825L59.0791 251.007H59.0801C67.7531 242.329 78.2161 238 90.5264 238ZM90.459 352.293C85.092 352.293 80.4999 354.375 76.7344 358.479C72.9958 362.554 71.0918 367.177 71.0918 372.316C71.0919 377.463 73.0163 381.905 76.8154 385.596C80.6166 389.288 85.2101 391.143 90.541 391.143C95.8723 391.142 100.454 389.285 104.229 385.586C108.003 381.887 109.908 377.406 109.908 372.196C109.908 367.13 107.986 362.547 104.223 358.477C100.431 354.375 95.8258 352.293 90.459 352.293ZM90.5283 250.357C81.9181 250.358 74.5205 253.293 68.3887 259.147L67.7998 259.724C61.5539 265.961 58.422 273.56 58.4219 282.464V305.436C58.4219 305.988 58.8696 306.436 59.4219 306.436H121.578C122.13 306.436 122.578 305.988 122.578 305.436V282.464C122.578 273.839 119.649 266.438 113.805 260.313L113.23 259.725C107.004 253.486 99.4165 250.357 90.5283 250.357Z" stroke="white" stroke-opacity="0.16" stroke-width="2" stroke-linejoin="round" shape-rendering="crispEdges"/>
</g>
<defs>
<filter id="filter0_f_31_44" x="2.6" y="0.599998" width="402.8" height="483.8" filterUnits="userSpaceOnUse" color-interpolation-filters="sRGB">
<feFlood flood-opacity="0" result="BackgroundImageFix"/>
<feBlend mode="normal" in="SourceGraphic" in2="BackgroundImageFix" result="shape"/>
<feGaussianBlur stdDeviation="19.7" result="effect1_foregroundBlur_31_44"/>
</filter>
<filter id="filter1_d_31_44" x="24.8" y="19.8" width="340.4" height="421.4" filterUnits="userSpaceOnUse" color-interpolation-filters="sRGB">
<feFlood flood-opacity="0" result="BackgroundImageFix"/>
<feColorMatrix in="SourceAlpha" type="matrix" values="0 0 0 0 0 0 0 0 0 0 0 0 0 0 0 0 0 0 127 0" result="hardAlpha"/>
<feOffset dx="2" dy="4"/>
<feGaussianBlur stdDeviation="4.1"/>
<feComposite in2="hardAlpha" operator="out"/>
<feColorMatrix type="matrix" values="0 0 0 0 0 0 0 0 0 0 0 0 0 0 0 0 0 0 0.27 0"/>
<feBlend mode="normal" in2="BackgroundImageFix" result="effect1_dropShadow_31_44"/>
<feBlend mode="normal" in="SourceGraphic" in2="effect1_dropShadow_31_44" result="shape"/>
</filter>
<filter id="filter2_f_31_44" x="7" y="218" width="181" height="229" filterUnits="userSpaceOnUse" color-interpolation-filters="sRGB">
<feFlood flood-opacity="0" result="BackgroundImageFix"/>
<feBlend mode="normal" in="SourceGraphic" in2="BackgroundImageFix" result="shape"/>
<feGaussianBlur stdDeviation="7" result="effect1_foregroundBlur_31_44"/>
</filter>
<filter id="filter3_di_31_44" x="0.8" y="224.1" width="179.1" height="227.1" filterUnits="userSpaceOnUse" color-interpolation-filters="sRGB">
<feFlood flood-opacity="0" result="BackgroundImageFix"/>
<feColorMatrix in="SourceAlpha" type="matrix" values="0 0 0 0 0 0 0 0 0 0 0 0 0 0 0 0 0 0 127 0" result="hardAlpha"/>
<feOffset dx="-4" dy="4"/>
<feGaussianBlur stdDeviation="4.6"/>
<feComposite in2="hardAlpha" operator="out"/>
<feColorMatrix type="matrix" values="0 0 0 0 0 0 0 0 0 0 0 0 0 0 0 0 0 0 0.1 0"/>
<feBlend mode="normal" in2="BackgroundImageFix" result="effect1_dropShadow_31_44"/>
<feBlend mode="normal" in="SourceGraphic" in2="effect1_dropShadow_31_44" result="shape"/>
<feColorMatrix in="SourceAlpha" type="matrix" values="0 0 0 0 0 0 0 0 0 0 0 0 0 0 0 0 0 0 127 0" result="hardAlpha"/>
<feOffset dx="-5" dy="5"/>
<feGaussianBlur stdDeviation="12.4"/>
<feComposite in2="hardAlpha" operator="arithmetic" k2="-1" k3="1"/>
<feColorMatrix type="matrix" values="0 0 0 0 1 0 0 0 0 1 0 0 0 0 1 0 0 0 0.5 0"/>
<feBlend mode="normal" in2="shape" result="effect2_innerShadow_31_44"/>
</filter>
<clipPath id="bgblur_0_31_44_clip_path" transform="translate(-0.8 -224.1)"><path d="M28.3438 438C24.3992 438 21.0229 436.594 18.2147 433.781C15.4049 430.971 14 427.591 14 423.643V319.793C14 315.845 15.4049 312.464 18.2147 309.652C21.0229 306.841 24.3992 305.436 28.3438 305.436H45.0781V282.464C45.0781 269.886 49.5095 259.164 58.3724 250.3C67.2336 241.433 77.9516 237 90.5263 237C103.099 237 113.809 241.433 122.654 250.3C131.499 259.164 135.922 269.886 135.922 282.464V305.436H152.656C156.601 305.436 159.978 306.841 162.788 309.652C165.596 312.464 167 315.845 167 319.793V423.643C167 427.591 165.596 430.971 162.788 433.781C159.978 436.594 156.601 438 152.656 438H28.3438ZM90.5406 390.143C95.6135 390.143 99.943 388.386 103.529 384.871C107.115 381.357 108.908 377.132 108.908 372.196C108.908 367.411 107.101 363.064 103.488 359.155C99.8752 355.247 95.5323 353.293 90.4594 353.293C85.3865 353.293 81.057 355.247 77.4711 359.155C73.8852 363.064 72.0922 367.451 72.0922 372.316C72.0922 377.182 73.8987 381.369 77.5117 384.879C81.1248 388.388 85.4677 390.143 90.5406 390.143ZM59.4219 305.436H121.578V282.464C121.578 273.823 118.56 266.478 112.522 260.431C106.485 254.382 99.1541 251.357 90.5287 251.357C81.9033 251.357 74.5625 254.382 68.5063 260.431C62.45 266.478 59.4219 273.823 59.4219 282.464V305.436Z"/>
</clipPath><linearGradient id="paint0_linear_31_44" x1="399" y1="-39.4938" x2="75.6022" y2="445" gradientUnits="userSpaceOnUse">
<stop stop-color="#FF4D00"/>
<stop offset="1" stop-color="#8E2B00"/>
</linearGradient>
<linearGradient id="paint1_linear_31_44" x1="325.5" y1="24" x2="64.6022" y2="428.994" gradientUnits="userSpaceOnUse">
<stop stop-color="#FFB799"/>
<stop offset="1" stop-color="#F3662A"/>
</linearGradient>
<linearGradient id="paint2_linear_31_44" x1="193" y1="24" x2="193" y2="429" gradientUnits="userSpaceOnUse">
<stop stop-color="#FF6226"/>
<stop offset="1" stop-color="#B13201"/>
</linearGradient>
<linearGradient id="paint3_linear_31_44" x1="159.905" y1="237" x2="21.095" y2="438" gradientUnits="userSpaceOnUse">
<stop stop-color="#FFEADC"/>
<stop offset="1" stop-color="#FFE6D1"/>
</linearGradient>
</defs>
</svg>
