<svg width="327" height="101" viewBox="0 0 327 101" fill="none" xmlns="http://www.w3.org/2000/svg">
<rect width="327" height="101" rx="50.5" fill="url(#paint0_linear_21_45)"/>
<g clip-path="url(#clip0_21_45)">
<g filter="url(#filter0_d_21_45)">
<path d="M52.1312 57.3062H57.8687L56.4625 49.15C57.2125 48.8125 57.8125 48.3156 58.2625 47.6594C58.7125 47.0031 58.9375 46.2812 58.9375 45.4937C58.9375 44.4062 58.5531 43.4781 57.7844 42.7094C57.0156 41.9406 56.0875 41.5562 55 41.5562C53.9125 41.5562 52.9844 41.9406 52.2156 42.7094C51.4469 43.4781 51.0625 44.4062 51.0625 45.4937C51.0625 46.2812 51.2875 47.0031 51.7375 47.6594C52.1875 48.3156 52.7875 48.8125 53.5375 49.15L52.1312 57.3062ZM55 73C49.75 71.6875 45.4375 68.6406 42.0625 63.8594C38.6875 59.0781 37 53.8375 37 48.1375V34.75L55 28L73 34.75V48.1375C73 53.8375 71.3125 59.0781 67.9375 63.8594C64.5625 68.6406 60.25 71.6875 55 73ZM55 69.5125C59.3125 68.0875 62.8281 65.3969 65.5469 61.4406C68.2656 57.4844 69.625 53.05 69.625 48.1375V37.1125L55 31.6L40.375 37.1125V48.1375C40.375 53.05 41.7344 57.4844 44.4531 61.4406C47.1719 65.3969 50.6875 68.0875 55 69.5125Z" fill="white"/>
</g>
</g>
<g filter="url(#filter1_d_21_45)">
<path d="M149.009 65L154.449 37H158.489L165.309 54.94L172.129 37H176.169L181.609 65H176.629L173.269 47.68L166.969 64.36H163.629L157.329 47.68L153.989 65H149.009ZM185.611 45H190.491V65H185.611V45ZM188.091 42.42C187.371 42.42 186.764 42.1867 186.271 41.72C185.778 41.24 185.531 40.64 185.531 39.92C185.531 39.2133 185.778 38.62 186.271 38.14C186.764 37.66 187.364 37.42 188.071 37.42C188.778 37.42 189.371 37.66 189.851 38.14C190.344 38.62 190.591 39.2133 190.591 39.92C190.591 40.64 190.351 41.24 189.871 41.72C189.391 42.1867 188.798 42.42 188.091 42.42ZM206.018 49.88H202.138V65H197.258V49.88H194.298V45H197.258V38.72H202.138V45H206.018V49.88ZM220.354 49.88H216.474V65H211.594V49.88H208.634V45H211.594V38.72H216.474V45H220.354V49.88ZM232.302 65.52C230.462 65.52 228.782 65.0467 227.262 64.1C225.755 63.1533 224.548 61.88 223.642 60.28C222.748 58.68 222.302 56.9133 222.302 54.98C222.302 53.5267 222.562 52.1667 223.082 50.9C223.602 49.62 224.315 48.5 225.222 47.54C226.142 46.5667 227.208 45.8067 228.422 45.26C229.635 44.7133 230.928 44.44 232.302 44.44C233.862 44.44 235.288 44.7733 236.582 45.44C237.888 46.0933 238.995 46.9933 239.902 48.14C240.808 49.2867 241.468 50.5933 241.882 52.06C242.295 53.5267 242.388 55.06 242.162 56.66H227.542C227.728 57.4067 228.035 58.08 228.462 58.68C228.888 59.2667 229.428 59.74 230.082 60.1C230.735 60.4467 231.475 60.6267 232.302 60.64C233.155 60.6533 233.928 60.4533 234.622 60.04C235.328 59.6133 235.915 59.04 236.382 58.32L241.362 59.48C240.548 61.2533 239.335 62.7067 237.722 63.84C236.108 64.96 234.302 65.52 232.302 65.52ZM227.382 53H237.222C237.075 52.2 236.762 51.48 236.282 50.84C235.815 50.1867 235.235 49.6667 234.542 49.28C233.848 48.8933 233.102 48.7 232.302 48.7C231.502 48.7 230.762 48.8933 230.082 49.28C229.402 49.6533 228.822 50.1667 228.342 50.82C227.875 51.46 227.555 52.1867 227.382 53ZM245.103 65V35H249.983V65H245.103Z" fill="white"/>
</g>
<defs>
<filter id="filter0_d_21_45" x="33" y="24" width="44" height="53" filterUnits="userSpaceOnUse" color-interpolation-filters="sRGB">
<feFlood flood-opacity="0" result="BackgroundImageFix"/>
<feColorMatrix in="SourceAlpha" type="matrix" values="0 0 0 0 0 0 0 0 0 0 0 0 0 0 0 0 0 0 127 0" result="hardAlpha"/>
<feOffset/>
<feGaussianBlur stdDeviation="2"/>
<feComposite in2="hardAlpha" operator="out"/>
<feColorMatrix type="matrix" values="0 0 0 0 0 0 0 0 0 0 0 0 0 0 0 0 0 0 0.25 0"/>
<feBlend mode="normal" in2="BackgroundImageFix" result="effect1_dropShadow_21_45"/>
<feBlend mode="normal" in="SourceGraphic" in2="effect1_dropShadow_21_45" result="shape"/>
</filter>
<filter id="filter1_d_21_45" x="147.009" y="33" width="108.974" height="38.52" filterUnits="userSpaceOnUse" color-interpolation-filters="sRGB">
<feFlood flood-opacity="0" result="BackgroundImageFix"/>
<feColorMatrix in="SourceAlpha" type="matrix" values="0 0 0 0 0 0 0 0 0 0 0 0 0 0 0 0 0 0 127 0" result="hardAlpha"/>
<feOffset dx="2" dy="2"/>
<feGaussianBlur stdDeviation="2"/>
<feComposite in2="hardAlpha" operator="out"/>
<feColorMatrix type="matrix" values="0 0 0 0 0 0 0 0 0 0 0 0 0 0 0 0 0 0 0.25 0"/>
<feBlend mode="normal" in2="BackgroundImageFix" result="effect1_dropShadow_21_45"/>
<feBlend mode="normal" in="SourceGraphic" in2="effect1_dropShadow_21_45" result="shape"/>
</filter>
<linearGradient id="paint0_linear_21_45" x1="0" y1="50.5" x2="327" y2="50.5" gradientUnits="userSpaceOnUse">
<stop stop-color="#E4DF9B"/>
<stop offset="1" stop-color="#AF9443"/>
</linearGradient>
<clipPath id="clip0_21_45">
<rect width="50" height="50" fill="white" transform="translate(30 26)"/>
</clipPath>
</defs>
</svg>
